HIERARCHY
ROOT ui
{
	 OFFSET 0 0 0
	 CHANNELS 3 XPosition YPosition Z Position
	 EndSite
	 {
	 OFFSET 0 -1 0
	 }
}
ROOT li
{
	 OFFSET 0 0 0
	 CHANNELS 3 XPosition YPosition Z Position
	 EndSite
	 {
	 OFFSET 0 -1 0
	 }
}
ROOT ul
{
	 OFFSET 0 0 0
	 CHANNELS 3 XPosition YPosition Z Position
	 EndSite
	 {
	 OFFSET 0 -1 0
	 }
}
ROOT ll
{
	 OFFSET 0 0 0
	 CHANNELS 3 XPosition YPosition Z Position
	 EndSite
	 {
	 OFFSET 0 -1 0
	 }
}
ROOT tt
{
	 OFFSET 0 0 0
	 CHANNELS 3 XPosition YPosition Z Position
	 EndSite
	 {
	 OFFSET 0 -1 0
	 }
}
ROOT tb
{
	 OFFSET 0 0 0
	 CHANNELS 3 XPosition YPosition Z Position
	 EndSite
	 {
	 OFFSET 0 -1 0
	 }
}
ROOT td
{
	 OFFSET 0 0 0
	 CHANNELS 3 XPosition YPosition Z Position
	 EndSite
	 {
	 OFFSET 0 -1 0
	 }
}
ROOT v
{
	 OFFSET 0 0 0
	 CHANNELS 3 XPosition YPosition Z Position
	 EndSite
	 {
	 OFFSET 0 -1 0
	 }
}
ROOT bn
{
	 OFFSET 0 0 0
	 CHANNELS 3 XPosition YPosition Z Position
	 EndSite
	 {
	 OFFSET 0 -1 0
	 }
}
MOTION
Frames: 27
Frame Time: 0.002
0.002816636085510254	7.202299684286118E-5	0		0.44488201904296876	-2.339799072265625	0		-0.9662135009765624	0.4066056823730469	0		-0.5332925415039063	-2.879234375	0		1.5717760009765624	-0.5494473266601563	0		3.2290634765625	-0.208187744140625	0		4.531482421875	-0.3236734619140625	0		5.97650048828125	0.5190906982421875	0		-0.31462646484375	5.92548046875	0		
0.012773991584777832	0.009908004760742188	0		0.45586209106445313	-2.3459267578125	0		-0.894322998046875	0.41441390991210936	0		-0.465243896484375	-2.88531689453125	0		1.5577822265625	-0.54008056640625	0		3.247547607421875	-0.16411534118652343	0		4.542609375	-0.30434954833984373	0		5.9728916015625	0.5359242553710938	0		-0.1821488800048828	5.94645458984375	0		
0.00242568302154541	6.259199976921082E-5	0		0.466895751953125	-2.347035400390625	0		-0.9036851806640624	0.4064566345214844	0		-0.5429072265625	-2.86921435546875	0		1.5444046630859376	-0.555716064453125	0		3.193163818359375	-0.1769665069580078	0		4.52958935546875	-0.2936690368652344	0		5.95849169921875	0.53928759765625	0		-0.3334107971191406	5.91865283203125	0		
0.0022199029922485352	8.525300025939941E-5	0		0.46489886474609377	-2.34893603515625	0		-0.9089901123046875	0.4024610290527344	0		-0.367192138671875	-2.895819580078125	0		1.528978759765625	-0.5743155517578125	0		3.220134033203125	-0.16601661682128907	0		4.54120751953125	-0.30736151123046873	0		5.9618037109375	0.5229567260742187	0		-0.3493759460449219	5.9078623046875	0		
-0.0020432569980621336	-0.003818535089492798	0		0.4556705322265625	-2.365721923828125	0		-0.98222607421875	0.4034732360839844	0		-0.5179755249023438	-2.884622802734375	0		1.5137713623046876	-0.577914306640625	0		3.210843505859375	-0.17254153442382814	0		4.52923583984375	-0.2927194519042969	0		5.96059912109375	0.4669526672363281	0		-0.36428680419921877	5.89807080078125	0		
0.0018140339851379394	1.72994002699852E-4	0		0.45567916870117187	-2.365631591796875	0		-0.9003551635742187	0.4102507629394531	0		-0.4778674011230469	-2.881197021484375	0		1.507507080078125	-0.5856431274414062	0		3.21906201171875	-0.14432637023925782	0		4.542146484375	-0.2864577331542969	0		5.97193896484375	0.47966799926757814	0		-0.3498800048828125	5.90687109375	0		
0.0016231369972229005	2.3337000608444214E-4	0		0.4498694152832031	-2.35244921875	0		-0.9735720825195312	0.4112860107421875	0		-0.5046614685058594	-2.869789306640625	0		1.5043070068359374	-0.5894158935546875	0		3.197741455078125	-0.1536997528076172	0		4.54505078125	-0.28106912231445313	0		5.97961572265625	0.47516436767578124	0		-0.21822348022460938	5.92900390625	0		
0.0014461100101470948	3.0204200744628906E-4	0		0.4816533508300781	-2.36780224609375	0		-0.9099011840820312	0.4023668518066406	0		-0.4676101379394531	-2.869287841796875	0		1.5319432373046875	-0.6056316528320312	0		3.230758544921875	-0.14086138916015625	0		4.54489501953125	-0.28065554809570314	0		5.9794892578125	0.47607684326171873	0		-0.364364501953125	5.89413134765625	0		
0.0012869420051574707	3.77036988735199E-4	0		0.47074725341796875	-2.36153759765625	0		-0.91503125	0.40644842529296876	0		-0.46248257446289065	-2.863317626953125	0		1.5196146240234376	-0.6202767944335937	0		3.20162646484375	-0.13914689636230468	0		4.54475537109375	-0.2802608642578125	0		5.9764208984375	0.459742431640625	0		-0.23358189392089843	5.9183154296875	0		
0.0011492589712142945	4.5630300045013426E-4	0		0.4776070861816406	-2.37252587890625	0		-0.9151953735351562	0.40646795654296874	0		-0.4553352355957031	-2.856368408203125	0		1.5134046630859375	-0.6280128784179687	0		3.196597412109375	-0.13178897094726563	0		4.548720703125	-0.2739427185058594	0		5.97927685546875	0.47776083374023437	0		-0.3664176025390625	5.89725	0		
0.0010363600254058838	5.376909971237183E-4	0		0.4537100524902344	-2.367077880859375	0		-0.9103896484375	0.402424072265625	0		-0.4671902160644531	-2.85014599609375	0		1.513146484375	-0.6408390502929687	0		3.19046484375	-0.13343025207519532	0		4.54170947265625	-0.26748922729492186	0		5.981796875	0.4351884765625	0		-0.2316314697265625	5.91440478515625	0		
0.008034692764282227	0.006519980907440185	0		0.48175332641601565	-2.36736474609375	0		-0.9054414672851563	0.40638409423828126	0		-0.4647666015625	-2.825121337890625	0		1.5130968017578126	-0.640674072265625	0		3.2118203125	-0.10247017669677734	0		4.5587919921875	-0.25639608764648436	0		5.97339892578125	0.47425653076171875	0		-0.21789144897460938	5.925275390625	0		
8.958070278167724E-4	6.969159841537475E-4	0		0.4777474670410156	-2.3722060546875	0		-0.926375244140625	0.41670941162109376	0		-0.42565576171875	-2.8236123046875	0		1.5159334716796875	-0.6505609741210937	0		3.180535400390625	-0.1187953872680664	0		4.5497783203125	-0.2539632263183594	0		5.9697041015625	0.459468994140625	0		-0.3666917724609375	5.894416015625	0		
-0.0031836960315704344	-0.003175447940826416	0		0.49972891235351563	-2.37941943359375	0		-0.93147314453125	0.4128098449707031	0		-0.4503708190917969	-2.81021240234375	0		1.5067857666015625	-0.6612957153320312	0		3.18961328125	-0.11170899200439453	0		4.54487744140625	-0.24562092590332033	0		5.96603125	0.44460775756835935	0		-0.36697744750976563	5.89447119140625	0		
8.79738986492157E-4	8.294479846954345E-4	0		0.4479014282226563	-2.373616943359375	0		-0.9206207885742187	0.4026836547851563	0		-0.40613565063476564	-2.80178125	0		1.5266221923828125	-0.6754545288085938	0		3.1787099609375	-0.10537506103515625	0		4.5538662109375	-0.24751316833496093	0		5.96969189453125	0.460555419921875	0		-0.2328990478515625	5.91465234375	0		
-0.0031341381072998047	-0.0030676569938659667	0		0.4760125732421875	-2.37394482421875	0		-0.920591796875	0.40270248413085935	0		-0.4457967529296875	-2.786193115234375	0		1.4796053466796875	-0.6807081298828125	0		3.18210107421875	-0.08027494049072266	0		4.5421103515625	-0.23316180419921875	0		5.97825	0.4554781188964844	0		-0.36733099365234373	5.8945537109375	0		
9.96753990650177E-4	9.060220122337341E-4	0		0.4542414855957031	-2.366600341796875	0		-0.9154702758789063	0.4066414184570312	0		-0.4103837890625	-2.766660400390625	0		1.514568603515625	-0.69012890625	0		3.185970703125	-0.09522691345214844	0		4.555259765625	-0.22820941162109376	0		5.97830419921875	0.45576727294921876	0		-0.367389404296875	5.8945751953125	0		
-0.002946321964263916	-0.0030291950702667236	0		0.47628890991210937	-2.373888427734375	0		-0.9204191284179688	0.4027066955566406	0		-0.4459236755371094	-2.744161376953125	0		1.5034979248046876	-0.7039442138671875	0		3.190263427734375	-0.08222808837890624	0		4.5453759765625	-0.2279956512451172	0		5.9656953125	0.4823136291503906	0		-0.36736334228515627	5.89457861328125	0		
0.0012585259675979615	9.00754988193512E-4	0		0.4744124755859375	-2.376871826171875	0		-0.8951358642578126	0.41233978271484373	0		-0.3697083740234375	-2.74122998046875	0		1.5285667724609375	-0.7102942504882812	0		3.185400390625	-0.0831529541015625	0		4.5555263671875	-0.22811953735351562	0		5.9805615234375	0.44379592895507813	0		-0.23295925903320314	5.91470654296875	0		
-0.00260650110244751	-0.003083750009536743	0		0.4745982360839844	-2.376912841796875	0		-0.9241361083984375	0.39870367431640624	0		-0.4401982727050781	-2.71728955078125	0		1.517549072265625	-0.72518359375	0		3.16568896484375	-0.07592276000976562	0		4.54879931640625	-0.22207150268554687	0		5.97497216796875	0.44043975830078125	0		-0.36705047607421876	5.8945224609375	0		
0.0016807010173797608	7.920979857444763E-4	0		0.47480743408203124	-2.37698583984375	0		-0.9139010009765625	0.3985057678222656	0		-0.3918170166015625	-2.70501953125	0		1.520635498046875	-0.7353072509765625	0		3.184697265625	-0.09228338623046875	0		4.5628896484375	-0.23237689208984375	0		5.9787919921875	0.4556688232421875	0		-0.3647889404296875	5.89243017578125	0		
0.009928984642028809	-0.0014172769784927368	0		0.4811394653320312	-2.370176513671875	0		-0.9136173095703125	0.3984229736328125	0		-0.4211961059570313	-2.6766982421875	0		1.5148031005859375	-0.7423484497070313	0		3.177416748046875	-0.060329376220703126	0		4.5636201171875	-0.1995577392578125	0		5.97898974609375	0.4553170471191406	0		-0.3644101257324219	5.892337890625	0		
0.0022803208827972413	5.626500248908996E-4	0		0.475308349609375	-2.37723486328125	0		-0.8963975830078125	0.39007904052734377	0		-0.3907464904785156	-2.663236572265625	0		1.4949571533203125	-0.7532369995117187	0		3.160503662109375	-0.07729924774169922	0		4.55370263671875	-0.21665834045410157	0		5.974158203125	0.4428973083496094	0		-0.3649308166503906	5.89322998046875	0		
0.0026495890617370607	3.9801400899887085E-4	0		0.4756066589355469	-2.377413818359375	0		-0.93201318359375	0.39044219970703126	0		-0.4251471862792969	-2.64090478515625	0		1.5061497802734376	-0.7645982055664062	0		3.1450390625	-0.06533664703369141	0		4.557134765625	-0.21200103759765626	0		5.97442138671875	0.4423009033203125	0		-0.23107850646972655	5.91422314453125	0		
-9.90788996219635E-4	-0.0037460019588470457	0		0.47391265869140625	-2.37960205078125	0		-0.8955883178710937	0.3897717590332031	0		-0.3708417053222656	-2.642843505859375	0		1.5014415283203124	-0.7717794189453125	0		3.150353759765625	-0.07271340942382812	0		4.5475576171875	-0.21121763610839844	0		5.9724580078125	0.42091180419921875	0		-0.23047512817382812	5.91303076171875	0		
0.0035242199897766112	-3.948700055480003E-5	0		0.45035494995117187	-2.374521728515625	0		-0.9211115112304687	0.38993197631835935	0		-0.4140157470703125	-2.609454345703125	0		1.495774658203125	-0.778988525390625	0		3.1440771484375	-0.05397314071655274	0		4.54905126953125	-0.20864030456542967	0		5.980107421875	0.45273321533203126	0		-0.34793524169921874	5.9034541015625	0		
0.004026790142059326	-3.150720000267029E-4	0		0.5047137756347656	-2.37857275390625	0		-0.8905399780273437	0.3932726745605469	0		-0.3773420104980469	-2.590219970703125	0		1.513173828125	-0.7845626220703125	0		3.16335107421875	-0.07064110565185547	0		4.55874072265625	-0.19522793579101563	0		5.97559326171875	0.47276016235351564	0		-0.33404013061523435	5.91400927734375	0		
